<?xml version="1.0" encoding="UTF-8"?>
<svg xmlns="http://www.w3.org/2000/svg" xmlns:xlink="http://www.w3.org/1999/xlink" width="10px" height="13px" viewBox="0 0 10 13" version="1.1" id="apple">
    <g id="Design-Spec" stroke="none" stroke-width="1" fill="none" fill-rule="evenodd">
        <g id="Taxonomy-and-Icons-Filled---04/28/22" transform="translate(-1507.000000, -693.000000)" fill="#86868B" fill-rule="nonzero">
            <g id="􀣺" transform="translate(1507.376953, 693.670206)">
                <path d="M6.83789062,2.80078125 C6.54492188,2.80078125 6.27246094,2.84570312 6.02050781,2.93554688 C5.76855469,3.02539062 5.5390625,3.11425781 5.33203125,3.20214844 C5.125,3.29003906 4.9453125,3.33398438 4.79296875,3.33398438 C4.6328125,3.33398438 4.45507812,3.29199219 4.25976562,3.20800781 C4.06445312,3.12402344 3.85449219,3.04101562 3.62988281,2.95898438 C3.40527344,2.87695312 3.16601563,2.8359375 2.91210938,2.8359375 C2.43164062,2.8359375 1.96875,2.96679688 1.5234375,3.22851562 C1.078125,3.49023438 0.712890625,3.87695312 0.427734375,4.38867188 C0.142578125,4.90039062 0,5.53125 0,6.28125 C0,6.75 0.0546875,7.21875 0.1640625,7.6875 C0.2734375,8.15625 0.419921875,8.59960938 0.603515625,9.01757812 C0.787109375,9.43554688 0.990234375,9.8046875 1.21289062,10.125 C1.50195312,10.5273438 1.78417969,10.8730469 2.05957031,11.1621094 C2.33496094,11.4511719 2.65429688,11.5957031 3.01757812,11.5957031 C3.25585938,11.5957031 3.46289062,11.5566406 3.63867188,11.4785156 C3.81445312,11.4003906 4.00097656,11.3212891 4.19824219,11.2412109 C4.39550781,11.1611328 4.64257812,11.1210938 4.93945312,11.1210938 C5.16601563,11.1210938 5.35546875,11.1445312 5.5078125,11.1914062 C5.66015625,11.2382812 5.79980469,11.2919922 5.92675781,11.3525391 C6.05371094,11.4130859 6.1875,11.4667969 6.328125,11.5136719 C6.46875,11.5605469 6.63867188,11.5839844 6.83789062,11.5839844 C7.09960938,11.5839844 7.33496094,11.5146484 7.54394531,11.3759766 C7.75292969,11.2373047 7.94628906,11.0585938 8.12402344,10.8398438 C8.30175781,10.6210938 8.47460938,10.3925781 8.64257812,10.1542969 C8.82617188,9.88476562 8.97558594,9.62597656 9.09082031,9.37792969 C9.20605469,9.12988281 9.29101562,8.92675781 9.34570312,8.76855469 C9.40039062,8.61035156 9.4296875,8.5234375 9.43359375,8.5078125 C9.421875,8.50390625 9.33691406,8.45996094 9.17871094,8.37597656 C9.02050781,8.29199219 8.84082031,8.15820312 8.63964844,7.97460938 C8.43847656,7.79101562 8.26269531,7.55078125 8.11230469,7.25390625 C7.96191406,6.95703125 7.88671875,6.59375 7.88671875,6.1640625 C7.88671875,5.7890625 7.94628906,5.46582031 8.06542969,5.19433594 C8.18457031,4.92285156 8.32421875,4.69824219 8.484375,4.52050781 C8.64453125,4.34277344 8.78808594,4.20703125 8.91503906,4.11328125 C9.04199219,4.01953125 9.11523438,3.96679688 9.13476562,3.95507812 C8.93945312,3.67382812 8.7265625,3.45507812 8.49609375,3.29882812 C8.265625,3.14257812 8.0390625,3.02929688 7.81640625,2.95898438 C7.59375,2.88867188 7.39550781,2.84472656 7.22167969,2.82714844 C7.04785156,2.80957031 6.91992187,2.80078125 6.83789062,2.80078125 Z M6.42773438,1.8515625 C6.60742188,1.63671875 6.75390625,1.38769531 6.8671875,1.10449219 C6.98046875,0.821289062 7.03710938,0.529296875 7.03710938,0.228515625 C7.03710938,0.142578125 7.03125,0.06640625 7.01953125,0 C6.7265625,0.01171875 6.42089844,0.099609375 6.10253906,0.263671875 C5.78417969,0.427734375 5.52148438,0.6328125 5.31445312,0.87890625 C5.14648438,1.06640625 4.99804688,1.30078125 4.86914062,1.58203125 C4.74023438,1.86328125 4.67578125,2.15234375 4.67578125,2.44921875 C4.67578125,2.49609375 4.67871094,2.5390625 4.68457031,2.578125 C4.69042969,2.6171875 4.6953125,2.64453125 4.69921875,2.66015625 C4.75,2.671875 4.80273438,2.67773438 4.85742188,2.67773438 C5.11914062,2.67773438 5.39746094,2.59960938 5.69238281,2.44335938 C5.98730469,2.28710938 6.23242188,2.08984375 6.42773438,1.8515625 Z" id="Shape"/>
            </g>
        </g>
    </g>
</svg>
