<svg width="5703" height="2064" viewBox="0 0 5703 2064" fill="none" xmlns="http://www.w3.org/2000/svg">
<path d="M869.514 689.635C933.429 625.72 965.386 593.763 1002.24 581.79C1034.65 571.258 1069.57 571.258 1101.98 581.79C1138.83 593.763 1170.79 625.721 1234.71 689.635L1394.48 849.406C1458.39 913.321 1490.35 945.278 1502.32 982.129C1512.85 1014.54 1512.85 1049.46 1502.32 1081.88C1490.35 1118.73 1458.39 1150.68 1394.48 1214.6L1234.71 1374.37C1170.79 1438.28 1138.83 1470.24 1101.98 1482.21C1069.57 1492.75 1034.65 1492.75 1002.24 1482.21C965.386 1470.24 933.429 1438.28 869.514 1374.37L839.475 1340.69C821.298 1320.31 812.209 1310.12 805.729 1298.53C799.982 1288.26 795.765 1277.19 793.212 1265.7C790.334 1252.74 790.334 1239.08 790.334 1211.77L790.333 852.23C790.333 824.922 790.333 811.268 793.212 798.306C795.765 786.81 799.981 775.747 805.729 765.469C812.209 753.88 821.298 743.691 839.475 723.312L869.514 689.635Z" fill="url(#paint0_radial_17984_134614)"/>
<path d="M869.514 689.635C933.429 625.72 965.386 593.763 1002.24 581.79C1034.65 571.258 1069.57 571.258 1101.98 581.79C1138.83 593.763 1170.79 625.721 1234.71 689.635L1394.48 849.406C1458.39 913.321 1490.35 945.278 1502.32 982.129C1512.85 1014.54 1512.85 1049.46 1502.32 1081.88C1490.35 1118.73 1458.39 1150.68 1394.48 1214.6L1234.71 1374.37C1170.79 1438.28 1138.83 1470.24 1101.98 1482.21C1069.57 1492.75 1034.65 1492.75 1002.24 1482.21C965.386 1470.24 933.429 1438.28 869.514 1374.37L839.475 1340.69C821.298 1320.31 812.209 1310.12 805.729 1298.53C799.982 1288.26 795.765 1277.19 793.212 1265.7C790.334 1252.74 790.334 1239.08 790.334 1211.77L790.333 852.23C790.333 824.922 790.333 811.268 793.212 798.306C795.765 786.81 799.981 775.747 805.729 765.469C812.209 753.88 821.298 743.691 839.475 723.312L869.514 689.635Z" fill="url(#paint1_linear_17984_134614)"/>
<path d="M858.103 701.036C890.061 669.079 906.039 653.1 924.464 647.114C940.672 641.848 958.13 641.848 974.338 647.114C992.763 653.1 1008.74 669.079 1040.7 701.036L1280.36 940.693C1312.31 972.65 1328.29 988.629 1334.28 1007.05C1339.54 1023.26 1339.54 1040.72 1334.28 1056.93C1328.29 1075.35 1312.31 1091.33 1280.36 1123.29L1040.7 1362.95C1008.74 1394.9 992.763 1410.88 974.338 1416.87C958.13 1422.13 940.672 1422.13 924.464 1416.87C906.039 1410.88 890.061 1394.9 858.103 1362.95L709.744 1214.59C645.83 1150.67 613.873 1118.71 601.899 1081.86C591.367 1049.45 591.367 1014.53 601.899 982.117C613.873 945.267 645.83 913.31 709.744 849.395L858.103 701.036Z" fill="url(#paint2_radial_17984_134614)"/>
<path d="M1837.44 1138.6V1258.52H1921.18V1143.83C1921.18 1132.7 1925.56 1121.95 1933.46 1114.09C1941.28 1106.23 1951.98 1101.74 1963.05 1101.74H2048.93C2088.94 1101.74 2127.36 1085.74 2155.65 1057.21C2183.93 1028.77 2199.84 990.138 2199.84 949.912C2199.84 909.687 2183.93 871.052 2155.65 842.521C2127.36 814.082 2088.94 798.086 2048.84 798.086H1837.44V947.948H1921.18V877.32H2043.25C2062.23 877.32 2080.38 884.897 2093.78 898.368C2107.17 911.839 2114.71 930.081 2114.71 949.164C2114.71 968.248 2107.17 986.489 2093.78 999.96C2080.38 1013.43 2062.23 1021.01 2043.25 1021.01H1954.58C1939.23 1021.01 1923.97 1024 1909.83 1029.99C1895.6 1035.88 1882.76 1044.58 1871.87 1055.53C1860.98 1066.47 1852.42 1079.47 1846.47 1093.69C1840.51 1107.82 1837.44 1123.16 1837.44 1138.6Z" fill="white"/>
<path d="M2212.78 1258.52V1075.83C2212.78 1001.27 2256.04 941.961 2342.67 941.961C2356.53 941.774 2370.39 943.27 2383.98 946.545V1021.66C2374.11 1021.01 2365.65 1021.01 2361.65 1021.01C2315.78 1021.01 2296.05 1042.15 2296.05 1084.99V1258.52H2212.78Z" fill="white"/>
<path d="M2408.91 1103.61C2408.91 1011.94 2477.76 942.056 2573.59 942.056C2669.43 942.056 2738.28 1011.94 2738.28 1103.61C2738.28 1195.29 2669.43 1265.82 2573.59 1265.82C2477.76 1265.82 2408.91 1195.19 2408.91 1103.61ZM2656.21 1103.61C2656.21 1051.51 2621.42 1014.55 2573.59 1014.55C2525.68 1014.55 2490.97 1051.41 2490.97 1103.61C2490.97 1156.37 2525.77 1192.67 2573.59 1192.67C2621.51 1192.67 2656.21 1156.28 2656.21 1103.61Z" fill="white"/>
<path d="M3004.57 1103.61C3004.57 1011.94 3073.42 942.056 3169.25 942.056C3264.99 942.056 3333.84 1011.94 3333.84 1103.61C3333.84 1195.29 3264.99 1265.82 3169.25 1265.82C3073.42 1265.82 3004.57 1195.19 3004.57 1103.61ZM3251.78 1103.61C3251.78 1051.51 3216.98 1014.55 3169.16 1014.55C3121.34 1014.55 3086.54 1051.41 3086.54 1103.61C3086.54 1156.37 3121.34 1192.67 3169.16 1192.67C3216.98 1192.67 3251.78 1156.28 3251.78 1103.61Z" fill="white"/>
<path d="M3377.11 1258.52V1082.47C3377.11 1000.71 3428.94 941.962 3521.42 941.962C3613.25 941.962 3665.08 1000.62 3665.08 1082.47V1258.52H3582.46V1089.02C3582.46 1043.55 3562.08 1015.12 3521.42 1015.12C3480.76 1015.12 3460.38 1043.46 3460.38 1089.02V1258.52H3377.11Z" fill="white"/>
<path d="M2979.63 1015.2H2889.75V1130.64C2889.75 1170.87 2904.17 1189.3 2945.49 1189.3C2949.39 1189.3 2959.26 1189.3 2971.72 1188.64V1256.56C2954.7 1261.14 2939.62 1263.85 2923.16 1263.85C2853.65 1263.85 2806.39 1221.66 2806.39 1141.87V1015.2H2750.56V948.599H2764.52C2770.01 948.599 2775.5 947.477 2780.52 945.419C2785.64 943.267 2790.2 940.18 2794.11 936.251C2798.01 932.322 2801.08 927.738 2803.22 922.593C2805.36 917.448 2806.39 912.023 2806.39 906.503V843.733H2889.66V948.599H2979.54V1015.2H2979.63Z" fill="white"/>
<path d="M4357.71 955.104C4264.12 955.104 4194.75 1023.82 4194.75 1115.44C4194.75 1212.3 4261.5 1276.44 4342 1276.44C4386.5 1276.44 4421.84 1256.8 4441.47 1223.43L4446.71 1269.24H4520.01V1116.1C4520.01 1016.62 4450.64 955.104 4357.71 955.104ZM4357.71 1203.79C4311.24 1203.79 4276.55 1167.8 4276.55 1115.44C4276.55 1063.09 4311.89 1027.09 4357.71 1027.09C4402.86 1027.09 4438.2 1061.78 4438.2 1115.44C4438.2 1175.65 4397.63 1203.79 4357.71 1203.79Z" fill="white"/>
<path d="M4680.58 1276.44C4743.41 1276.44 4797.07 1240.44 4797.07 1185.47C4797.07 1067.67 4638.04 1095.15 4638.04 1047.38C4638.04 1031.67 4651.79 1019.89 4673.38 1019.89C4695.63 1019.89 4710.03 1032.33 4713.3 1050.65H4791.18C4786.6 990.444 4740.79 954.449 4673.38 955.104C4604.01 955.104 4561.47 996.334 4561.47 1047.38C4561.47 1166.49 4718.54 1135.73 4718.54 1185.47C4718.54 1200.52 4704.14 1211.65 4680.58 1211.65C4657.68 1211.65 4636.73 1200.52 4632.81 1176.96H4553.62C4558.2 1235.21 4609.25 1276.44 4680.58 1276.44Z" fill="white"/>
<path d="M4955.73 1276.44C5018.56 1276.44 5072.22 1240.44 5072.22 1185.47C5072.22 1067.67 4913.19 1095.15 4913.19 1047.38C4913.19 1031.67 4926.93 1019.89 4948.53 1019.89C4970.78 1019.89 4985.18 1032.33 4988.45 1050.65H5066.33C5061.75 990.444 5015.94 954.449 4948.53 955.104C4879.16 955.104 4836.62 996.334 4836.62 1047.38C4836.62 1166.49 4993.69 1135.73 4993.69 1185.47C4993.69 1200.52 4979.29 1211.65 4955.73 1211.65C4932.82 1211.65 4911.88 1200.52 4907.96 1176.96H4828.77C4833.35 1235.21 4884.4 1276.44 4955.73 1276.44Z" fill="white"/>
<path d="M4045.28 802.945H3830.22V1269.25H3915.41V1153.17C3915.41 1141.9 3919.86 1131 3927.91 1123.04C3935.86 1115.08 3946.74 1110.53 3958.01 1110.53H4045.28C4085.98 1110.53 4124.98 1094.33 4153.66 1065.62C4182.43 1036.81 4198.52 997.769 4198.52 957.117C4198.62 936.934 4194.74 916.845 4187.07 898.178C4179.4 879.51 4168.14 862.454 4153.85 848.145C4139.55 833.837 4122.7 822.466 4104.06 814.695C4085.51 806.925 4065.53 802.945 4045.28 802.945ZM4112.39 955.885C4112.39 965.456 4110.49 974.932 4106.8 983.744C4103.11 992.557 4097.81 1000.61 4091 1007.34C4084.27 1014.07 4076.23 1019.47 4067.43 1023.07C4058.62 1026.76 4049.16 1028.57 4039.6 1028.57H3915.03V883.301H4039.6C4049.16 883.301 4058.62 885.196 4067.52 888.891C4076.32 892.587 4084.37 897.988 4091.09 904.716C4097.81 911.539 4103.21 919.593 4106.8 928.406C4110.4 937.313 4112.29 946.789 4112.2 956.359L4112.39 955.885Z" fill="white"/>
<defs>
<radialGradient id="paint0_radial_17984_134614" cx="0" cy="0" r="1" gradientUnits="userSpaceOnUse" gradientTransform="translate(870.514 1507.97) rotate(-58.142) scale(764.821 1196.02)">
<stop stop-color="#FFD580"/>
<stop offset="0.09375" stop-color="#F6C592"/>
<stop offset="0.205" stop-color="#EBB6A2"/>
<stop offset="0.324466" stop-color="#DFA5AF"/>
<stop offset="0.42875" stop-color="#D397BE"/>
<stop offset="0.53375" stop-color="#C486CB"/>
<stop offset="0.64875" stop-color="#B578D9"/>
<stop offset="0.77125" stop-color="#A166E5"/>
<stop offset="0.89125" stop-color="#8B57F2"/>
<stop offset="1" stop-color="#704CFF"/>
</radialGradient>
<linearGradient id="paint1_linear_17984_134614" x1="838.958" y1="391.965" x2="1017.14" y2="1479.59" gradientUnits="userSpaceOnUse">
<stop stop-color="#6D4AFF"/>
<stop offset="0.392009" stop-color="#B39FFB" stop-opacity="0.978022"/>
<stop offset="1" stop-color="#FFE8DB" stop-opacity="0.8"/>
</linearGradient>
<radialGradient id="paint2_radial_17984_134614" cx="0" cy="0" r="1" gradientUnits="userSpaceOnUse" gradientTransform="translate(803.333 1414.83) rotate(-58.142) scale(615.182 962.019)">
<stop stop-color="#FFD580"/>
<stop offset="0.09375" stop-color="#F6C592"/>
<stop offset="0.205" stop-color="#EBB6A2"/>
<stop offset="0.324466" stop-color="#DFA5AF"/>
<stop offset="0.42875" stop-color="#D397BE"/>
<stop offset="0.53375" stop-color="#C486CB"/>
<stop offset="0.64875" stop-color="#B578D9"/>
<stop offset="0.77125" stop-color="#A166E5"/>
<stop offset="0.89125" stop-color="#8B57F2"/>
<stop offset="1" stop-color="#704CFF"/>
</radialGradient>
</defs>
</svg>
