<svg width="5834" height="2064" viewBox="0 0 5834 2064" fill="none" xmlns="http://www.w3.org/2000/svg">
<path d="M4586.09 799.562H4371.03V1265.87H4456.22V1149.79C4456.22 1138.51 4460.67 1127.62 4468.72 1119.66C4476.67 1111.7 4487.55 1107.15 4498.82 1107.15H4586.09C4626.79 1107.15 4665.78 1090.94 4694.46 1062.23C4723.24 1033.43 4739.33 994.385 4739.33 953.734C4739.43 933.55 4735.54 913.461 4727.88 894.794C4720.21 876.127 4708.95 859.07 4694.65 844.761C4680.36 830.453 4663.51 819.082 4644.87 811.312C4626.31 803.542 4606.34 799.562 4586.09 799.562ZM4653.2 952.502C4653.2 962.072 4651.3 971.548 4647.61 980.361C4643.92 989.173 4638.62 997.228 4631.8 1003.96C4625.08 1010.68 4617.04 1016.08 4608.24 1019.69C4599.43 1023.38 4589.97 1025.18 4580.41 1025.18H4455.84V879.917H4580.41C4589.97 879.917 4599.43 881.812 4608.33 885.508C4617.13 889.203 4625.18 894.604 4631.9 901.332C4638.62 908.155 4644.01 916.209 4647.61 925.022C4651.21 933.929 4653.1 943.405 4653.01 952.976L4653.2 952.502Z" fill="white"/>
<path d="M4071.83 1264.16L3900.23 798.236H3997.15L4110.07 1131.69C4114.52 1143.63 4117.74 1155.95 4119.63 1168.55H4120.58C4122 1155.85 4125.22 1143.44 4130.14 1131.69L4243.44 798.236H4341.03L4168.57 1264.16H4071.83Z" fill="white"/>
<path d="M4771.23 1264.16V798.133H4845.91L5065.7 1087.15C5073.65 1097.1 5080.46 1107.8 5086.24 1119.17H5087.56C5086.05 1105.15 5085.38 1091.03 5085.48 1076.91V798.133H5173.51V1264.06H5098.82L4878.38 975.047C4870.61 965.002 4863.8 954.295 4857.93 943.019H4857.17C4858.4 957.043 4858.88 971.162 4858.59 985.281V1264.06H4771.23V1264.16Z" fill="white"/>
<path d="M1908.02 1138.64V1258.57H1991.76V1143.88C1991.76 1132.75 1996.13 1121.99 2004.04 1114.13C2011.86 1106.28 2022.56 1101.79 2033.63 1101.79H2119.51C2159.52 1101.79 2197.94 1085.79 2226.23 1057.26C2254.51 1028.82 2270.42 990.184 2270.42 949.959C2270.42 909.734 2254.51 871.099 2226.23 842.568C2197.94 814.129 2159.52 798.133 2119.42 798.133H1908.02V947.995H1991.76V877.367H2113.83C2132.81 877.367 2150.96 884.944 2164.36 898.415C2177.75 911.886 2185.29 930.127 2185.29 949.211C2185.29 968.294 2177.75 986.536 2164.36 1000.01C2150.96 1013.48 2132.81 1021.05 2113.83 1021.05H2025.16C2009.81 1021.05 1994.55 1024.05 1980.41 1030.04C1966.17 1035.93 1953.34 1044.63 1942.45 1055.57C1931.56 1066.52 1923 1079.52 1917.05 1093.74C1911.09 1107.87 1908.02 1123.21 1908.02 1138.64Z" fill="white"/>
<path d="M2283.36 1258.57V1075.87C2283.36 1001.32 2326.62 942.008 2413.24 942.008C2427.11 941.82 2440.97 943.317 2454.55 946.591V1021.71C2444.69 1021.05 2436.23 1021.05 2432.22 1021.05C2386.35 1021.05 2366.63 1042.2 2366.63 1085.04V1258.57H2283.36Z" fill="white"/>
<path d="M2479.49 1103.66C2479.49 1011.98 2548.34 942.102 2644.17 942.102C2740.01 942.102 2808.86 1011.98 2808.86 1103.66C2808.86 1195.33 2740.01 1265.87 2644.17 1265.87C2548.34 1265.87 2479.49 1195.24 2479.49 1103.66ZM2726.79 1103.66C2726.79 1051.55 2692 1014.6 2644.17 1014.6C2596.26 1014.6 2561.55 1051.46 2561.55 1103.66C2561.55 1156.42 2596.35 1192.71 2644.17 1192.71C2692.09 1192.71 2726.79 1156.32 2726.79 1103.66Z" fill="white"/>
<path d="M3075.15 1103.66C3075.15 1011.98 3144 942.102 3239.83 942.102C3335.57 942.102 3404.42 1011.98 3404.42 1103.66C3404.42 1195.33 3335.57 1265.87 3239.83 1265.87C3144 1265.87 3075.15 1195.24 3075.15 1103.66ZM3322.36 1103.66C3322.36 1051.55 3287.56 1014.6 3239.74 1014.6C3191.91 1014.6 3157.12 1051.46 3157.12 1103.66C3157.12 1156.42 3191.91 1192.71 3239.74 1192.71C3287.56 1192.71 3322.36 1156.32 3322.36 1103.66Z" fill="white"/>
<path d="M3447.69 1258.57V1082.52C3447.69 1000.76 3499.51 942.009 3592 942.009C3683.83 942.009 3735.66 1000.66 3735.66 1082.52V1258.57H3653.03V1089.06C3653.03 1043.6 3632.66 1015.16 3592 1015.16C3551.34 1015.16 3530.96 1043.51 3530.96 1089.06V1258.57H3447.69Z" fill="white"/>
<path d="M3050.21 1015.25H2960.33V1130.69C2960.33 1170.91 2974.75 1189.34 3016.06 1189.34C3019.97 1189.34 3029.83 1189.34 3042.3 1188.69V1256.6C3025.28 1261.19 3010.2 1263.9 2993.73 1263.9C2924.23 1263.9 2876.97 1221.71 2876.97 1141.91V1015.25H2821.14V948.646H2835.1C2840.59 948.646 2846.08 947.524 2851.1 945.466C2856.22 943.314 2860.78 940.227 2864.68 936.298C2868.59 932.369 2871.66 927.785 2873.8 922.64C2875.94 917.495 2876.97 912.069 2876.97 906.55V843.78H2960.24V948.646H3050.12V1015.25H3050.21Z" fill="white"/>
<g clip-path="url(#clip0_11862_387802)">
<path fill-rule="evenodd" clip-rule="evenodd" d="M1029.52 1398.59C1064.42 1461.32 1154.03 1464.72 1193.65 1404.81L1563.05 846.23C1602.22 786.994 1564.74 707.575 1493.8 699.504L767.732 616.89C690.322 608.083 635.206 689.706 672.858 757.394L1029.52 1398.59Z" fill="url(#paint0_linear_11862_387802)"/>
<path d="M1050.35 1340.08L1083.14 1291.18L1332.16 915.017C1353.93 882.129 1333.15 838.01 1293.76 833.487L675.75 762.535L995.896 1338.08C1007.58 1358.68 1037.12 1359.81 1050.35 1340.08Z" fill="url(#paint1_linear_11862_387802)"/>
</g>
<defs>
<linearGradient id="paint0_linear_11862_387802" x1="1491" y1="1398.55" x2="900.215" y2="379.732" gradientUnits="userSpaceOnUse">
<stop offset="0.0660125" stop-color="#8EFFEE"/>
<stop offset="0.4499" stop-color="#C9C7FF"/>
<stop offset="1" stop-color="#7341FF"/>
</linearGradient>
<linearGradient id="paint1_linear_11862_387802" x1="1545.04" y1="-293.444" x2="717.742" y2="1476.08" gradientUnits="userSpaceOnUse">
<stop offset="0.4799" stop-color="#6D4AFF"/>
<stop offset="0.9944" stop-color="#00F0C3"/>
</linearGradient>
<clipPath id="clip0_11862_387802">
<rect width="918.147" height="831.529" fill="white" transform="translate(660.727 616.234)"/>
</clipPath>
</defs>
</svg>
